<svg xmlns="http://www.w3.org/2000/svg" xmlns:xlink="http://www.w3.org/1999/xlink" width="300" height="103" viewBox="0 0 300 103">
    <defs>
        <path id="zd7tdp2j5a" d="M0.072 0.154L13.226 0.154 13.226 13.231 0.072 13.231z"/>
    </defs>
    <g fill="none" fill-rule="evenodd">
        <g>
            <g>
                <path fill="#FFDC00" d="M.199 35.72L.018 48.755 7.827 48.755 8.008 77.108 22.545 77.289 22.124 48.755 29.513 48.875 28.852 35.84 9.209 35.72zM44.049 65.635l7.809-.6-.42-20.244-9.191.42 1.802 20.424zm-7.63-30.696h20.245l6.547 4.446.901 30.635-3.724 5.707-23.007.6-5.707-4.144-1.501-32.198 6.247-5.046zM82.973 35.059L87.899 48.815 93.846 35.48 108.143 35.78 109.344 77.469 96.609 77.469 96.309 60.649 92.044 76.568 85.256 77.049 81.232 61.911 80.451 77.529 66.394 77.108 67.055 35.54zM123.46 66.236l6.608-.18-.18-3.965-6.728-3.665.3 7.81zm6.367-18.922l.12-2.644-6.787.661v5.707l6.667-3.724zm10.813-13.756l1.682 15.618-5.706 4.926 6.727 3.964 1.382 12.735-10.092 7.389-22.706-.421.3-42.35 28.413-1.861zM165.809 59.688l-1.982-10.152-2.283 10.152h4.265zm6.788-24.388l9.972 41.568-13.456.781-.961-5.647-9.491.3-1.081 5.046-13.036.18 9.612-41.688 18.441-.54zM197.286 36.861L197.466 64.133 208.519 63.953 208.819 76.568 184.13 76.988 183.349 36.681zM229.902 59.688l-1.982-10.152-2.283 10.152h4.265zM236.69 35.3l9.972 41.568-13.456.781-.961-5.647-9.491.3-1.081 5.046-13.036.18 9.612-41.688 18.441-.54zM243.298 47.734L242.638 35.359 276.938 33.678 276.938 47.013 263.001 46.833 263.181 50.317 277.418 57.045 278.319 71.462 273.694 77.589 250.687 77.289 250.687 65.334 264.443 65.815 264.863 62.271 250.447 56.264 249.966 47.374zM278.859 36.021L279.46 48.395 284.986 48.094 285.166 77.108 299.703 77.289 299.103 35.9z" transform="translate(-570 -32) translate(570 32)"/>
                <g>
                    <path fill="#FFF" d="M114.437 17.644c.272-.037.51-.099.717-.187.206-.088.375-.214.507-.375.133-.162.199-.368.199-.618 0-.206-.055-.394-.166-.563-.11-.17-.305-.33-.584-.485-.28-.155-.651-.31-1.115-.464-.463-.154-1.048-.327-1.754-.518-.662-.177-1.265-.387-1.81-.63-.544-.242-1.011-.54-1.4-.893-.39-.353-.689-.78-.894-1.28-.207-.5-.31-1.096-.31-1.788 0-.72.155-1.36.464-1.919.309-.559.724-1.026 1.247-1.401.522-.375 1.132-.658 1.831-.85.699-.191 1.438-.287 2.218-.287.839 0 1.581.074 2.229.22.647.148 1.272.405 1.875.773.427.25.725.544.894.883.17.338.254.662.254.971 0 .309-.055.57-.165.783-.111.213-.247.387-.409.519-.162.132-.338.228-.53.287-.19.059-.367.088-.53.088-.308 0-.565-.044-.771-.132-.206-.089-.42-.191-.64-.31-.339-.176-.677-.341-1.016-.496-.338-.154-.83-.231-1.478-.231-.72 0-1.225.12-1.511.363-.287.243-.43.49-.43.74 0 .191.05.364.154.518.103.155.283.305.54.453.258.147.6.294 1.026.44.427.148.971.31 1.633.486.589.162 1.162.346 1.722.552.559.206 1.059.486 1.5.839.441.353.795.79 1.06 1.313.264.522.396 1.166.396 1.93 0 .604-.114 1.177-.341 1.722-.228.544-.567 1.022-1.016 1.434-.448.412-1.007.75-1.677 1.015-.669.265-1.452.427-2.35.486v.419c.221.044.434.107.64.187.206.081.394.195.563.342.17.147.305.335.408.563.103.228.155.511.155.85 0 .397-.074.746-.221 1.048-.147.301-.346.552-.596.75-.25.199-.533.35-.85.452-.316.103-.636.155-.96.155-.529 0-.908-.088-1.136-.265-.228-.177-.342-.434-.342-.772 0-.206.033-.368.1-.486.066-.117.15-.21.253-.276.103-.066.214-.11.331-.132.118-.022.221-.033.31-.033.5 0 .75-.118.75-.353 0-.147-.063-.243-.188-.287-.125-.044-.342-.088-.651-.132-.147-.03-.246-.07-.298-.122-.052-.051-.077-.173-.077-.364V21.01c-.839-.074-1.563-.229-2.174-.464-.61-.235-1.129-.537-1.555-.905-.221-.191-.438-.43-.651-.717-.214-.286-.32-.6-.32-.938 0-.338.062-.617.187-.838.125-.22.276-.397.453-.53.176-.132.353-.224.53-.275.176-.052.323-.078.44-.078.25 0 .479.04.685.122.206.08.411.187.618.32.47.323.948.57 1.434.739.485.169 1.074.253 1.765.253.28 0 .555-.018.828-.055" transform="translate(-570 -32) translate(570 32) translate(0 .01)"/>
                    <path fill="#FFF" d="M112.303 24.577s-.02.05-.02.184c0 .205.07.26.103.285.03.023.204.137.76.137.257 0 .516-.042.77-.125.248-.08.463-.195.656-.349.18-.142.319-.318.426-.538.105-.215.158-.477.158-.778 0-.25-.033-.45-.1-.597-.066-.147-.149-.262-.251-.351-.117-.102-.243-.178-.384-.234-.171-.067-.351-.12-.535-.157l-.495-.099v-1.5l.575-.037c.83-.055 1.557-.204 2.164-.444.596-.236 1.097-.538 1.487-.896.38-.35.672-.76.864-1.22.195-.465.294-.964.294-1.483 0-.664-.111-1.22-.33-1.652-.224-.441-.525-.815-.895-1.11-.388-.31-.835-.56-1.33-.742-.539-.2-1.101-.38-1.671-.536-.666-.178-1.23-.345-1.67-.497-.468-.161-.838-.321-1.131-.489-.345-.198-.59-.408-.747-.646-.171-.256-.258-.545-.258-.86 0-.438.218-.844.648-1.208.405-.343 1.03-.51 1.91-.51.742 0 1.31.094 1.733.287.35.16.702.332 1.045.511.207.11.406.207.597.29.126.053.31.082.53.082.1 0 .217-.02.349-.061.115-.036.22-.093.32-.175.096-.079.18-.188.252-.326.064-.123.096-.292.096-.5 0-.211-.063-.445-.188-.696-.114-.228-.335-.44-.655-.627-.553-.336-1.122-.571-1.7-.703-.6-.136-1.305-.205-2.093-.205-.721 0-1.413.089-2.055.265-.625.17-1.175.425-1.635.756-.445.32-.804.722-1.067 1.199-.257.464-.387 1.01-.387 1.621 0 .608.088 1.13.263 1.554.172.418.413.765.737 1.058.34.308.756.572 1.239.787.513.23 1.09.43 1.718.597.713.193 1.314.371 1.79.53.504.167.902.334 1.217.508.372.206.635.43.803.688.176.27.265.573.265.899 0 .395-.113.734-.338 1.007-.195.24-.445.424-.742.552-.254.109-.55.187-.876.23v.001c-.298.04-.604.06-.91.06-.758 0-1.42-.096-1.968-.287-.535-.187-1.066-.46-1.58-.813-.155-.1-.327-.189-.494-.255-.133-.052-.288-.078-.46-.078-.026 0-.106.005-.268.052-.105.03-.217.09-.334.178-.107.08-.203.195-.286.34-.07.126-.107.306-.107.535 0 .205.065.392.199.571.185.25.373.458.56.62.37.318.832.586 1.374.795.554.213 1.228.356 2.006.424l.561.05v2.03c.274.043.471.087.615.137.37.131.599.463.599.868 0 .291-.133.968-1.366.968-.035 0-.097.004-.194.022-.041.008-.076.023-.112.046-.007.005-.027.017-.051.06zm.843 1.836c-.677 0-1.172-.129-1.514-.394-.264-.204-.58-.59-.58-1.258 0-.317.058-.575.179-.788.115-.205.269-.37.457-.491.053-.035.108-.066.165-.093l-.014-.013c-.228-.23-.258-.548-.258-.8V21.56c-.663-.092-1.26-.239-1.78-.439-.673-.26-1.257-.6-1.735-1.013-.255-.22-.505-.495-.743-.816-.293-.394-.442-.832-.442-1.305 0-.444.09-.828.268-1.142.166-.294.375-.536.619-.718.235-.176.479-.302.725-.374.235-.069.436-.102.614-.102.327 0 .632.055.91.164.242.095.486.221.725.375.44.302.873.526 1.304.676.418.145.944.22 1.563.22.25 0 .501-.018.745-.05.216-.03.404-.078.557-.144.115-.05.204-.114.274-.2.015-.017.06-.072.06-.227 0-.087-.02-.157-.066-.227-.024-.037-.11-.14-.367-.282-.245-.136-.586-.277-1.011-.419-.454-.151-1.033-.322-1.72-.508-.689-.184-1.329-.406-1.9-.661-.602-.268-1.128-.605-1.564-1-.456-.413-.81-.918-1.05-1.501-.235-.573-.355-1.254-.355-2.023 0-.822.182-1.568.54-2.217.352-.637.832-1.176 1.427-1.603.58-.416 1.261-.733 2.028-.943.748-.205 1.549-.31 2.38-.31.88 0 1.676.08 2.365.237.71.161 1.403.446 2.06.847.52.305.901.688 1.123 1.133.212.423.32.842.32 1.246 0 .407-.08.766-.235 1.066-.15.288-.34.528-.565.712-.224.183-.472.317-.74.399-.247.077-.487.115-.71.115-.396 0-.728-.06-1.014-.182-.223-.096-.454-.207-.687-.332-.319-.166-.65-.328-.98-.479-.177-.08-.532-.176-1.224-.176-.773 0-1.036.153-1.114.218-.168.142-.212.239-.212.27 0 .07.016.124.05.177.018.026.094.122.335.26.222.127.532.26.92.393.414.143.95.301 1.592.473.607.167 1.203.358 1.775.568.62.23 1.182.544 1.673.936.508.407.92.917 1.223 1.515.308.607.464 1.35.464 2.21 0 .682-.131 1.34-.39 1.958-.261.625-.654 1.18-1.166 1.65-.503.461-1.13.843-1.867 1.134-.329.13-.683.238-1.061.322l.09.076c.237.205.427.466.566.774.139.307.21.678.21 1.103 0 .489-.096.933-.284 1.318-.187.384-.445.708-.767.962-.305.243-.655.43-1.04.555-.378.123-.765.185-1.151.185zM125.514 6.97c.317-.316.732-.474 1.247-.474.515 0 .93.158 1.247.474.316.316.474.732.474 1.247V20c0 .514-.158.93-.474 1.246-.316.316-.732.474-1.247.474-.515 0-.93-.158-1.247-.474-.316-.316-.474-.732-.474-1.246V8.217c0-.515.158-.93.474-1.247m2.616-5.55c.367.338.551.81.551 1.413 0 .661-.187 1.14-.563 1.434-.375.294-.834.44-1.379.44-.544 0-1-.157-1.368-.474-.368-.316-.552-.783-.552-1.4 0-.59.18-1.056.541-1.402.36-.346.82-.518 1.379-.518.56 0 1.023.169 1.39.507" transform="translate(-570 -32) translate(570 32) translate(0 .01)"/>
                    <path fill="#FFF" d="M126.74 1.528c-.399 0-.71.114-.954.347-.236.227-.351.54-.351.957 0 .434.11.74.337.935.255.22.571.326.967.326.407 0 .733-.102 1-.31.08-.064.327-.257.327-.95 0-.427-.116-.742-.353-.96-.253-.232-.571-.345-.974-.345m0 3.795c-.693 0-1.288-.21-1.77-.623-.507-.437-.765-1.065-.765-1.868 0-.76.246-1.38.73-1.845.477-.457 1.085-.69 1.805-.69.716 0 1.324.226 1.807.67.498.458.75 1.086.75 1.865 0 .858-.269 1.504-.798 1.92-.484.379-1.076.571-1.759.571m-.79 2.082c-.2.2-.294.459-.294.812V20c0 .353.094.611.295.811.2.202.458.295.811.295.353 0 .611-.093.812-.294.2-.2.294-.459.294-.812V8.217c0-.353-.093-.611-.294-.812-.2-.2-.459-.294-.812-.294-.353 0-.61.093-.811.294m.811 14.932c-.682 0-1.247-.22-1.682-.655-.434-.434-.654-1-.654-1.682V8.217c0-.682.22-1.248.654-1.682.435-.435 1-.655 1.682-.655.682 0 1.247.22 1.682.655.435.434.655 1 .655 1.682V20c0 .682-.22 1.248-.655 1.682-.434.434-1 .655-1.682.655M141.297 11.853c.363-.389.511-.934.446-1.637-.062-.66-.307-1.146-.735-1.461-.428-.315-.943-.445-1.543-.389l-2.22.207.387 4.153 2.264-.21c.57-.054 1.038-.274 1.4-.663m3.54.767c-.374.81-.981 1.47-1.821 1.976l2.122 2.085c.374.365.621.678.742.94.12.262.193.532.22.81.032.352-.082.71-.344 1.074-.261.364-.67.572-1.227.624-.38.036-.723-.025-1.025-.181-.303-.157-.578-.371-.825-.644l-3.357-3.677-1.406.131.3 3.23c.049.513-.07.942-.356 1.286-.286.344-.684.54-1.197.588-.513.048-.942-.071-1.286-.357-.344-.286-.54-.685-.588-1.197l-1.093-11.734c-.048-.512.071-.94.357-1.285.285-.344.684-.54 1.197-.588l3.977-.37c.835-.079 1.605-.025 2.31.161.704.186 1.322.479 1.854.88.533.4.96.9 1.281 1.498.322.599.517 1.27.587 2.018.094 1.01-.046 1.921-.421 2.732" transform="translate(-570 -32) translate(570 32) translate(0 .01)"/>
                    <path fill="#FFF" d="M137.915 9.129l.273 2.927 1.65-.153c.42-.04.75-.193 1.009-.47.24-.257.332-.636.283-1.16-.045-.48-.204-.815-.487-1.022-.305-.225-.672-.314-1.121-.272l-1.607.15zm-.838 4.267l-.501-5.378 2.832-.264c.752-.07 1.413.1 1.965.505.574.422.904 1.061.982 1.9.083.882-.122 1.593-.609 2.114-.466.5-1.07.787-1.793.855l-2.876.268zm2.869-7.484c-.216 0-.437.01-.662.03l-3.978.371c-.351.033-.6.15-.78.369-.182.218-.251.484-.218.835l1.093 11.734c.033.351.15.6.368.78.218.182.485.251.836.218s.599-.15.78-.368c.182-.219.251-.484.218-.836l-.358-3.842 2.324-.217 3.563 3.903c.198.219.418.39.653.512.198.102.423.14.686.115.374-.035.63-.156.784-.37.174-.242.25-.457.23-.658-.019-.207-.075-.413-.165-.61-.06-.132-.216-.37-.612-.756l-2.69-2.643.68-.41c.738-.446 1.255-1.004 1.58-1.707.327-.707.451-1.52.368-2.417-.062-.66-.236-1.26-.517-1.783-.278-.517-.65-.954-1.109-1.298-.466-.352-1.018-.613-1.642-.777-.443-.117-.923-.175-1.432-.175zm-3.502 15.576c-.562 0-1.053-.171-1.46-.51-.474-.392-.745-.934-.809-1.613l-1.093-11.733c-.063-.679.104-1.263.496-1.736.392-.472.935-.744 1.614-.808l3.977-.37c.903-.085 1.751-.025 2.523.179.778.205 1.474.536 2.069.983.6.453 1.09 1.024 1.452 1.699.36.668.58 1.426.658 2.252.104 1.116-.056 2.14-.476 3.048-.322.697-.799 1.299-1.42 1.797l1.594 1.566c.43.42.715.787.869 1.122.15.324.24.664.273 1.01.047.502-.107 1.004-.456 1.49-.37.514-.931.81-1.67.878-.498.046-.957-.037-1.365-.248-.367-.19-.702-.45-.998-.777l-3.149-3.449-.488.046.244 2.617c.063.679-.104 1.263-.496 1.736-.392.473-.935.745-1.614.808-.094.008-.185.013-.275.013zM161.483 22.646c.095.213.143.423.143.629 0 .294-.059.547-.176.761-.118.213-.261.394-.43.54-.17.148-.354.254-.552.32-.199.067-.38.1-.541.1-.56 0-1.015-.199-1.368-.596l-4.435-5.053-.927 1.037v2.824c0 .515-.158.942-.475 1.28-.316.339-.732.508-1.246.508-.515 0-.93-.17-1.247-.508-.316-.338-.475-.765-.475-1.28v-11.65c0-.516.159-.942.475-1.28.316-.339.732-.508 1.247-.508.514 0 .93.17 1.246.508.317.338.475.764.475 1.28v4.325l4.854-5.451c.192-.206.39-.368.596-.486.206-.117.47-.176.794-.176.471 0 .857.158 1.159.474.302.317.453.666.453 1.049 0 .205-.026.408-.078.606-.051.2-.18.408-.386.63l-3.972 4.413 4.281 4.876c.294.339.489.615.585.828" transform="translate(-570 -32) translate(570 32) translate(0 .01)"/>
                    <path fill="#FFF" d="M154.128 18.419l4.893 5.575c.234.263.523.387.906.387.095 0 .211-.023.345-.068.124-.041.236-.106.343-.2.114-.1.214-.225.296-.374.066-.12.1-.277.1-.464 0-.12-.03-.243-.09-.377-.04-.089-.155-.294-.487-.676l-4.64-5.285 4.338-4.82c.183-.197.233-.317.248-.372.038-.147.057-.3.057-.452 0-.224-.09-.422-.282-.624-.185-.193-.412-.284-.713-.284-.211 0-.38.033-.49.096-.15.086-.302.21-.45.37l-5.92 6.648v-5.942c0-.356-.102-.637-.31-.86-.198-.212-.452-.312-.796-.312-.345 0-.598.1-.798.312-.207.223-.308.504-.308.86v11.651c0 .357.1.638.308.86.2.213.453.313.798.313.344 0 .598-.1.797-.313.207-.222.308-.503.308-.86v-3.06l1.547-1.73zm5.8 7.192c-.74 0-1.356-.27-1.83-.802l-3.978-4.534-.308.344v2.59c0 .673-.215 1.245-.64 1.7-.436.466-1.007.702-1.696.702-.69 0-1.26-.236-1.697-.702-.425-.455-.64-1.027-.64-1.7V11.556c0-.673.215-1.245.64-1.7.436-.466 1.007-.702 1.697-.702.69 0 1.26.236 1.696.702.425.455.64 1.027.64 1.7v2.71l3.78-4.244c.241-.26.49-.463.75-.61.3-.172.67-.258 1.1-.258.643 0 1.182.223 1.603.665.413.433.623.928.623 1.473 0 .257-.033.513-.097.76-.079.303-.252.596-.532.895l-3.599 3.999 3.92 4.465c.34.39.563.711.684.982.131.292.198.588.198.88 0 .399-.086.755-.254 1.06-.152.275-.341.513-.565.707-.23.2-.485.348-.761.44-.26.086-.507.13-.735.13zM176.41 16.932c.28.273.42.644.42 1.115 0 .47-.14.842-.42 1.114-.279.272-.668.408-1.169.408h-7.855c-.56 0-.986-.158-1.28-.474-.295-.316-.442-.732-.442-1.247V6.065c0-.515.151-.931.453-1.247.301-.316.732-.475 1.29-.475h7.812c.5 0 .894.136 1.18.409.287.272.431.643.431 1.114 0 .47-.144.842-.43 1.114-.287.272-.68.409-1.18.409h-6.113v2.956h3.685c.5 0 .908.136 1.225.408.316.273.474.644.474 1.115 0 .47-.158.842-.474 1.114-.317.273-.725.408-1.225.408h-3.685v3.134h6.134c.5 0 .89.136 1.17.408" transform="translate(-570 -32) translate(570 32) translate(0 .01)"/>
                    <path fill="#FFF" d="M167.408 4.959c-.387 0-.664.093-.846.284-.19.198-.282.467-.282.822v11.783c0 .357.09.628.276.827.174.188.446.279.83.279h7.855c.337 0 .579-.077.74-.234.1-.098.234-.273.234-.673s-.134-.576-.234-.674c-.161-.157-.404-.234-.74-.234h-6.75v-4.364h4.3c.352 0 .622-.085.824-.259.112-.096.26-.268.26-.648 0-.376-.138-.544-.26-.648-.202-.175-.472-.26-.823-.26h-4.3V6.774h6.727c.34 0 .587-.078.758-.24.102-.096.238-.271.238-.667s-.136-.57-.239-.668c-.17-.16-.417-.24-.757-.24h-7.811zm7.833 15.226h-7.855c-.734 0-1.317-.226-1.73-.67-.403-.433-.607-.994-.607-1.667V6.065c0-.677.21-1.24.622-1.672.422-.441 1.006-.665 1.737-.665h7.811c.661 0 1.2.194 1.605.577.412.392.621.917.621 1.56 0 .645-.209 1.17-.621 1.562-.405.383-.944.577-1.605.577h-5.497V9.73h3.07c.65 0 1.196.187 1.626.557.45.387.688.934.688 1.581 0 .647-.238 1.193-.688 1.58-.43.37-.977.558-1.626.558h-3.07v1.903h5.52c.663 0 1.2.196 1.598.582.402.391.605.915.605 1.556 0 .64-.203 1.164-.605 1.555-.397.387-.935.583-1.599.583zM193.084 8.756c.307.282.452.66.437 1.13-.016.47-.186.836-.512 1.097-.325.261-.737.384-1.237.367l-3.154-.105-.349 10.453c-.017.514-.19.924-.516 1.23-.326.305-.747.45-1.262.432-.514-.017-.924-.189-1.23-.516-.305-.326-.45-.747-.432-1.261l.35-10.453-3.154-.106c-.5-.016-.904-.166-1.21-.448-.308-.283-.453-.66-.438-1.13.016-.47.187-.836.512-1.098.325-.261.738-.384 1.237-.367l9.747.326c.5.017.904.166 1.21.449" transform="translate(-570 -32) translate(570 32) translate(0 .01)"/>
                    <path fill="#FFF" d="M182.036 8.595c-.317 0-.567.076-.761.233-.116.093-.27.26-.283.639-.012.38.13.556.24.656.196.181.462.275.813.286l3.769.126-.37 11.068c-.012.353.073.614.267.821.193.207.448.31.801.321.351.015.613-.073.82-.267.208-.194.31-.448.322-.8l.37-11.068 3.768.125c.35.015.623-.064.832-.232.115-.092.269-.259.282-.638.013-.38-.13-.557-.239-.656-.197-.182-.463-.275-.814-.287l-9.747-.326h-.07m4.538 15.381c-.035 0-.069 0-.103-.002-.682-.023-1.24-.262-1.66-.71-.419-.448-.62-1.022-.597-1.703l.329-9.838-2.539-.084c-.649-.022-1.19-.228-1.606-.612-.438-.402-.657-.956-.636-1.602.022-.647.278-1.185.741-1.557.442-.356.996-.524 1.644-.503l9.747.326c.65.022 1.19.227 1.607.611.437.402.657.957.635 1.603-.022.646-.278 1.184-.74 1.556-.443.356-.996.521-1.645.503l-2.538-.084-.329 9.837c-.023.681-.262 1.24-.71 1.66-.426.398-.964.6-1.6.6M299.842 15.577L205.538 15.115 299.842 14.654zM.149 14.808L95.385 15.269.149 15.731zM0 94.808L135.534 95.269 0 95.731zM299.842 95.731L164.308 95.269 299.842 94.808z" transform="translate(-570 -32) translate(570 32) translate(0 .01)"/>
                    <g transform="translate(-570 -32) translate(570 32) translate(0 .01) translate(143.385 88.615)">
                        <mask id="j6n3hqrmab" fill="#fff">
                            <use xlink:href="#zd7tdp2j5a"/>
                        </mask>
                        <path fill="#FFF" d="M13.073 6.654c-.001-1.695-.703-3.37-1.907-4.556C9.971.904 8.296.218 6.611.231c-1.685 0-3.35.698-4.528 1.894C.895 3.314.214 4.98.226 6.654c.001 1.674.695 3.329 1.884 4.5C3.291 12.336 4.947 13.013 6.611 13c1.665-.001 3.31-.69 4.474-1.872 1.173-1.174 1.845-2.82 1.834-4.474h.154zm.153 0c0 1.734-.719 3.45-1.95 4.664-1.223 1.223-2.94 1.925-4.665 1.913-1.724-.001-3.43-.715-4.637-1.94C.758 10.075.06 8.368.073 6.654c0-1.715.71-3.41 1.928-4.61C3.211.835 4.907.141 6.611.154c1.705 0 3.39.706 4.583 1.917 1.201 1.202 1.89 2.888 1.879 4.583h.153z" mask="url(#j6n3hqrmab)"/>
                    </g>
                    <path fill="#FFF" d="M155.073 95.27c0 2.803-2.273 5.076-5.077 5.076s-5.077-2.273-5.077-5.077 2.273-5.077 5.077-5.077 5.077 2.273 5.077 5.077" transform="translate(-570 -32) translate(570 32) translate(0 .01)"/>
                </g>
            </g>
        </g>
    </g>
</svg>
