<svg xmlns="http://www.w3.org/2000/svg" xmlns:xlink="http://www.w3.org/1999/xlink" width="117" height="40" viewBox="0 0 117 40">
    <defs>
        <path id="5fd63pckba" d="M0 39.958L116.178 39.958 116.178 0 0 0z"/>
    </defs>
    <g fill="none" fill-rule="evenodd">
        <g>
            <g transform="translate(-40 -23) translate(40 23)">
                <path fill="#FFF" d="M10.516 11.39l3.827 5.152-4.44 2.197-5.035-8.246v7.821H0V1.82c1.432-.41 3.062-.614 4.892-.614 2.49 0 4.472.488 5.954 1.464 1.575 1.04 2.361 2.507 2.361 4.396 0 2.064-.895 3.506-2.69 4.324M5.812 5.317c-.49 0-.802.024-.945.07v4.184c.316.031.574.047.777.047.745 0 1.365-.173 1.868-.52.57-.393.852-.947.852-1.653 0-.694-.268-1.23-.803-1.608-.472-.346-1.054-.52-1.749-.52M24.196 1.561L29.065 1.561 29.065 18.314 24.196 18.314 24.196 13.399 20.11 13.399 20.11 18.314 15.242 18.314 15.242 1.561 20.11 1.561 20.11 9.382 24.196 9.382z"/>
                <mask id="ipn2detehb" fill="#fff">
                    <use xlink:href="#5fd63pckba"/>
                </mask>
                <path fill="#FFF" d="M31.453 18.314L36.321 18.314 36.321 1.561 31.453 1.561zM48.561 1.561L53.264 1.561 53.264 18.314 48.561 18.314 43.243 8.603 43.407 18.314 38.706 18.314 38.706 1.561 43.407 1.561 48.75 11.083zM63.825 1.206c2.475 0 4.58.842 6.322 2.527 1.741 1.687 2.611 3.75 2.611 6.192 0 2.458-.861 4.526-2.586 6.204-1.726 1.677-3.856 2.517-6.392 2.517-2.523 0-4.639-.83-6.346-2.494-1.71-1.662-2.565-3.738-2.565-6.227 0-2.393.872-4.446 2.612-6.156 1.74-1.708 3.856-2.563 6.344-2.563m-3.732 8.649c0 1.29.395 2.323 1.18 3.095.71.693 1.55 1.04 2.53 1.04 1.007 0 1.863-.38 2.563-1.135.7-.755 1.05-1.756 1.05-3 0-1.229-.34-2.222-1.027-2.977-.684-.758-1.54-1.135-2.564-1.135-1.055 0-1.929.354-2.622 1.063-.74.772-1.11 1.788-1.11 3.049M.015 37.965V23.824c.925-.31 2.026-.464 3.307-.464 1.733 0 3.14.342 4.216 1.029 1.304.846 1.957 2.118 1.957 3.812 0 1.48-.572 2.65-1.715 3.51-.78.605-1.662.97-2.644 1.09l4.762 4.66-1.15.787L1.93 31.61c.564.106 1.427.161 2.582.161.847 0 1.628-.33 2.341-.988.779-.699 1.169-1.526 1.169-2.481 0-1.28-.49-2.227-1.474-2.845-.806-.525-1.863-.788-3.167-.788-.807 0-1.451.075-1.936.223v13.072H.015zM20.468 23.661H21.9v9.644c0 1.36-.328 2.447-.988 3.269-.9 1.117-2.365 1.674-4.397 1.674-1.978 0-3.41-.55-4.296-1.654-.672-.835-1.008-1.93-1.008-3.289v-9.644h1.431v9.785c0 1.144.312 1.993.939 2.552.624.558 1.63.838 3.015.838 2.582 0 3.872-1.13 3.872-3.39v-9.785zM33.62 23.661L35.054 23.661 35.054 38.248 25.674 26.951 25.674 37.965 24.242 37.965 24.242 23.219 33.62 34.515zM46.777 23.661L48.209 23.661 48.209 38.248 38.827 26.951 38.827 37.965 37.396 37.965 37.396 23.219 46.777 34.515zM50.549 23.661L58.74 23.661 58.96 24.973 51.982 24.973 51.982 31.349 58.398 31.349 58.213 32.68 51.982 32.68 51.982 36.634 59.808 36.634 59.504 37.965 50.549 37.965zM61.118 37.965V23.824c.93-.31 2.033-.464 3.312-.464 1.735 0 3.138.342 4.214 1.029 1.305.846 1.957 2.118 1.957 3.812 0 1.48-.57 2.65-1.714 3.51-.779.605-1.662.97-2.642 1.09l4.757 4.66-1.148.787-6.818-6.637c.564.106 1.426.161 2.583.161.849 0 1.626-.33 2.339-.988.78-.699 1.171-1.526 1.171-2.481 0-1.28-.489-2.227-1.474-2.845-.804-.525-1.862-.788-3.168-.788-.804 0-1.451.075-1.934.223v13.072h-1.435zM108.308 9.66c.033.118 1.714 6.776-1.866 12.57 0 0 .28-3.902-1.326-7.06 0 0-.667 2.77-3.276 3.719 0 0-4.543-2.41-11.568-9.518 0 0 2.587-2.381 3.633-5.158-.03.005-.063.008-.098.012l-.063.01C87.218 5.249 82.01 10.233 80.661 16.64c-.224 1.06-.344 2.161-.344 3.288 0 .865.073 1.713.203 2.539.137.848.343 1.671.606 2.468.872.672 3.105 3.58 7.813 4.817 7.261 1.904 10.503 2.438 10.503 2.438l3.974 1.5.375.19c.587-.32 1.148-.678 1.688-1.066 3.303-2.383 5.65-6.005 6.365-10.187.029-.16.055-.319.078-.477.026-.185.05-.37.072-.558.003-.022.007-.045.007-.068.053-.522.078-1.048.078-1.583v-.02c0-.188-.007-.371-.012-.557-.102-2.863-.957-5.532-2.379-7.816-.408-.66-.867-1.284-1.365-1.872-.003-.006-.009-.01-.015-.015" mask="url(#ipn2detehb)"/>
                <path fill="#FFF" d="M96.2 1.999c2.427 0 4.78.476 6.996 1.413 2.141.905 4.065 2.2 5.715 3.854 1.653 1.652 2.95 3.574 3.854 5.715.938 2.216 1.413 4.57 1.413 6.998s-.475 4.782-1.413 6.996c-.903 2.142-2.201 4.066-3.854 5.718-1.65 1.651-3.574 2.946-5.715 3.852-2.216.938-4.569 1.415-6.996 1.415-2.43 0-4.785-.477-7-1.415-2.14-.906-4.061-2.2-5.715-3.852-1.653-1.652-2.95-3.576-3.853-5.718-.937-2.214-1.414-4.568-1.414-6.996 0-2.428.477-4.782 1.414-6.998.903-2.14 2.2-4.063 3.853-5.715C85.14 5.612 87.06 4.317 89.2 3.412c2.215-.937 4.57-1.413 7-1.413M96.2 0C85.165 0 76.22 8.944 76.22 19.98c0 11.035 8.945 19.98 19.98 19.98 11.034 0 19.978-8.945 19.978-19.98S107.234 0 96.2 0" mask="url(#ipn2detehb)"/>
            </g>
        </g>
    </g>
</svg>
